# xmcd
#
# Track frame offsets:
#	150
#	10258
#	18763
#	34510
#	45434
#	58940
#	72930
#	90396
#	100875
#	116012
#	124681
#	137525
#
# Disc length: 1951 seconds
# Revision: 0
# Processed by: cddbd v1.5.2PL0 Copyright (c) Steve Scherf et al.
# Submitted via: dBpowerAMP V12.0
#
DISCID=91079d0c
DTITLE=Brightwater Junction - Old fashioned Preacher
DYEAR=2006
DGENRE=Bluegrass
TTITLE0=Old Fashioned Preacher
TTITLE1=John 3:16
TTITLE2=By The Side of the Road
TTITLE3=Waiting on the Mountain
TTITLE4=Rescue Me
TTITLE5=Help Thy Brother
TTITLE6=Heaven
TTITLE7=It Won't Be Long
TTITLE8=Light of the Lord
TTITLE9=See God's Ark A Movin'
TTITLE10=Halfway Home
TTITLE11=Gloryland Way
EXTD=
EXTT0=
EXTT1=
EXTT2=
EXTT3=
EXTT4=
EXTT5=
EXTT6=
EXTT7=
EXTT8=
EXTT9=
EXTT10=
EXTT11=
PLAYORDER=
